<mxfile host="app.diagrams.net" modified="2024-03-29T13:50:02.966Z" agent="Mozilla/5.0 (Macintosh; Intel Mac OS X 10_15_7) AppleWebKit/605.1.15 (KHTML, like Gecko) Version/15.2 Safari/605.1.15" version="23.1.1" etag="ham76C0ZALszNVEjxHDm" type="github">
  <diagram name="Page-1" id="cWVK-FY8BVFzfyo3xwjw">
    <mxGraphModel>
      <root>
        <mxCell id="0" />
        <mxCell id="1" parent="0" />
      </root>
    </mxGraphModel>
  </diagram>
</mxfile>
